<svg width="21" height="21" viewBox="0 0 21 21" fill="none" xmlns="http://www.w3.org/2000/svg">
<path d="M10.1062 1.82643C12.785 1.82643 13.1503 1.82643 14.2461 1.82643C15.2202 1.82643 15.7073 2.06995 16.0726 2.19171C16.5596 2.43524 16.9249 2.557 17.2902 2.92228C17.6555 3.28757 17.899 3.65285 18.0207 4.1399C18.1425 4.50519 18.2643 4.99223 18.386 5.96633C18.386 7.06219 18.386 7.30571 18.386 10.1062C18.386 12.9068 18.386 13.1503 18.386 14.2461C18.386 15.2202 18.1425 15.7073 18.0207 16.0726C17.7772 16.5596 17.6555 16.9249 17.2902 17.2902C16.9249 17.6555 16.5596 17.899 16.0726 18.0207C15.7073 18.1425 15.2202 18.2643 14.2461 18.386C13.1503 18.386 12.9068 18.386 10.1062 18.386C7.30571 18.386 7.06219 18.386 5.96633 18.386C4.99223 18.386 4.50519 18.1425 4.1399 18.0207C3.65285 17.7772 3.28757 17.6555 2.92228 17.2902C2.557 16.9249 2.31347 16.5596 2.19171 16.0726C2.06995 15.7073 1.94819 15.2202 1.82643 14.2461C1.82643 13.1503 1.82643 12.9068 1.82643 10.1062C1.82643 7.30571 1.82643 7.06219 1.82643 5.96633C1.82643 4.99223 2.06995 4.50519 2.19171 4.1399C2.43524 3.65285 2.557 3.28757 2.92228 2.92228C3.28757 2.557 3.65285 2.31347 4.1399 2.19171C4.50519 2.06995 4.99223 1.94819 5.96633 1.82643C7.06219 1.82643 7.42747 1.82643 10.1062 1.82643ZM10.1062 0C7.30571 0 7.06219 0 5.96633 0C4.87047 0 4.1399 0.243524 3.53109 0.487048C2.92228 0.730572 2.31347 1.09586 1.70467 1.70467C1.09586 2.31348 0.852333 2.80052 0.487048 3.53109C0.243524 4.1399 0.121762 4.87047 0 5.96633C0 7.06219 0 7.42747 0 10.1062C0 12.9068 0 13.1503 0 14.2461C0 15.342 0.243524 16.0726 0.487048 16.6814C0.730571 17.2902 1.09586 17.899 1.70467 18.5078C2.31347 19.1166 2.80052 19.3601 3.53109 19.7254C4.1399 19.9689 4.87047 20.0907 5.96633 20.2125C7.06219 20.2125 7.42747 20.2125 10.1062 20.2125C12.785 20.2125 13.1503 20.2125 14.2461 20.2125C15.342 20.2125 16.0726 19.9689 16.6814 19.7254C17.2902 19.4819 17.899 19.1166 18.5078 18.5078C19.1166 17.899 19.3601 17.4119 19.7254 16.6814C19.9689 16.0726 20.0907 15.342 20.2125 14.2461C20.2125 13.1503 20.2125 12.785 20.2125 10.1062C20.2125 7.42747 20.2125 7.06219 20.2125 5.96633C20.2125 4.87047 19.9689 4.1399 19.7254 3.53109C19.4819 2.92228 19.1166 2.31348 18.5078 1.70467C17.899 1.09586 17.4119 0.852333 16.6814 0.487048C16.0726 0.243524 15.342 0.121762 14.2461 0C13.1503 0 12.9068 0 10.1062 0Z" fill="white"/>
<path d="M10.1062 4.87047C7.18395 4.87047 4.87047 7.18395 4.87047 10.1062C4.87047 13.0285 7.18395 15.342 10.1062 15.342C13.0285 15.342 15.342 13.0285 15.342 10.1062C15.342 7.18395 13.0285 4.87047 10.1062 4.87047ZM10.1062 13.5156C8.2798 13.5156 6.6969 12.0544 6.6969 10.1062C6.6969 8.2798 8.15804 6.6969 10.1062 6.6969C11.9327 6.6969 13.5156 8.15804 13.5156 10.1062C13.5156 11.9327 11.9327 13.5156 10.1062 13.5156Z" fill="white"/>
<path d="M15.4637 5.96633C16.1362 5.96633 16.6814 5.42118 16.6814 4.74871C16.6814 4.07624 16.1362 3.53109 15.4637 3.53109C14.7913 3.53109 14.2461 4.07624 14.2461 4.74871C14.2461 5.42118 14.7913 5.96633 15.4637 5.96633Z" fill="white"/>
</svg>
