<svg width="20" height="20" viewBox="0 0 20 20" fill="none" xmlns="http://www.w3.org/2000/svg">
<path d="M4.38343 19.4819H0.24352V6.45338H4.38343V19.4819ZM2.31348 4.62695C0.974096 4.62695 0 3.65285 0 2.31347C0 0.974094 1.09586 0 2.31348 0C3.65286 0 4.62695 0.974094 4.62695 2.31347C4.62695 3.65285 3.65286 4.62695 2.31348 4.62695ZM19.4819 19.4819H15.342V12.4197C15.342 10.3498 14.4896 9.74094 13.272 9.74094C12.0544 9.74094 10.8368 10.715 10.8368 12.5415V19.4819H6.6969V6.45338H10.5933V8.2798C10.9586 7.42747 12.4197 6.08809 14.4896 6.08809C16.8031 6.08809 19.2384 7.42747 19.2384 11.4456V19.4819H19.4819Z" fill="white"/>
</svg>
