<svg width="20" height="16" viewBox="0 0 20 16" fill="none" xmlns="http://www.w3.org/2000/svg">
<path d="M19.4819 1.82643C18.7513 2.19171 18.0207 2.31347 17.1684 2.43524C18.0207 1.94819 18.6296 1.21762 18.8731 0.243523C18.1425 0.730571 17.2902 0.974095 16.3161 1.21762C15.5855 0.487047 14.4897 0 13.3938 0C10.8368 0 8.88861 2.43524 9.49742 4.87047C6.20985 4.74871 3.28757 3.16581 1.21762 0.730571C0.121762 2.557 0.730571 4.87047 2.43524 6.08809C1.82643 6.08809 1.21762 5.84457 0.608809 5.60104C0.608809 7.42747 1.94819 9.13214 3.77462 9.61918C3.16581 9.74095 2.557 9.86271 1.94819 9.74095C2.43524 11.3238 3.89638 12.5415 5.7228 12.5415C4.26166 13.6373 2.06995 14.2461 0 14.0026C1.82643 15.0985 3.89638 15.829 6.08809 15.829C13.5156 15.829 17.6555 9.61918 17.4119 3.89638C18.2643 3.40933 18.9948 2.67876 19.4819 1.82643Z" fill="white"/>
</svg>
